<?xml version="1.0" standalone="no"?>
<!DOCTYPE svg PUBLIC "-//W3C//DTD SVG 20010904//EN"
 "http://www.w3.org/TR/2001/REC-SVG-20010904/DTD/svg10.dtd">
<svg version="1.0" xmlns="http://www.w3.org/2000/svg"
 width="500.000000pt" height="500.000000pt" viewBox="0 0 500.000000 500.000000"
 preserveAspectRatio="xMidYMid meet">
<metadata>
Created by potrace 1.14, written by Peter Selinger 2001-2017
</metadata>
<g transform="translate(0.000000,500.000000) scale(0.100000,-0.100000)"
fill="#000000" stroke="none">
<path d="M582 3685 l3 -670 33 -1 32 -1 1 51 c0 28 0 313 0 633 0 438 3 582
12 585 7 2 856 4 1887 4 l1875 -1 5 -635 5 -636 30 1 30 0 0 670 0 670 -1958
0 -1957 0 2 -670z"/>
<path d="M1133 3907 c-2 -4 23 -85 57 -180 135 -377 160 -447 200 -562 23 -66
46 -131 52 -145 6 -14 34 -92 63 -175 49 -140 321 -903 422 -1185 24 -69 46
-129 47 -135 2 -5 6 -17 9 -25 3 -8 29 -80 57 -160 29 -80 72 -203 98 -275 25
-71 47 -132 48 -134 3 -3 509 -4 621 -2 24 1 33 7 38 24 10 31 474 1338 485
1362 5 11 25 67 45 125 21 58 57 159 80 225 24 66 64 179 90 250 25 72 57 159
70 195 12 36 59 166 103 290 45 124 103 288 131 365 27 77 48 141 46 144 -3 3
-550 5 -616 2 -13 -1 -32 -48 -77 -183 -33 -101 -192 -581 -352 -1068 -160
-487 -295 -893 -301 -902 -5 -10 -9 -25 -9 -35 0 -24 -18 -4 -24 27 -3 14 -13
45 -22 70 -14 41 -241 702 -299 875 -13 39 -72 210 -130 380 -58 171 -145 425
-192 565 -47 140 -89 259 -94 264 -10 11 -639 14 -646 3z"/>
<path d="M580 1165 l0 -725 1960 0 1960 0 0 725 0 725 -35 0 -35 0 0 -690 0
-690 -40 0 c-22 -1 -843 -1 -1825 -1 -982 0 -1814 0 -1850 1 l-66 0 1 648 c1
356 1 666 1 690 -1 41 -2 42 -36 42 l-35 0 0 -725z"/>
</g>
</svg>
